<svg width="561" height="695" viewBox="0 0 561 695" fill="none" xmlns="http://www.w3.org/2000/svg">
<path d="M265.825 2.45867C311.428 -5.78888 387.747 7.48183 428.696 30.7783C486.535 63.6907 525.657 112.376 549.244 180.761C560.439 213.204 564.8 310.789 557.18 358.125C542.077 451.956 493.45 536.994 422.119 594.356C381.484 627.034 312.173 667.471 296.835 667.471C282.793 667.47 274.722 661.47 274.722 650.995C274.722 647.145 288.351 628.364 305.025 609.23C339.845 569.263 358.976 541.255 365.928 520.05C376.161 488.838 359.741 465.639 327.414 465.639C311.958 465.639 307.678 467.633 295.148 480.707C287.194 488.994 274.527 506.895 266.985 520.479C239.607 569.789 189.072 619.236 126.441 657.972C62.5534 697.471 32.6033 704.193 11.9425 683.613C-5.71308 666.063 -4.02527 650.193 18.5598 621.444C28.5957 608.682 41.58 589.312 47.3934 578.426C54.3487 565.43 58.0734 550.963 58.2529 536.24L60.1972 376.594C62.1612 215.689 63.2625 192 69.6059 172.768C99.8038 81.076 166.844 21.8627 261.325 3.31251L265.825 2.45867ZM211.13 135.262C168.437 135.262 133.828 169.703 133.828 212.188C133.828 254.673 168.437 289.114 211.13 289.114C253.821 289.113 288.431 254.672 288.431 212.188C288.431 169.703 253.822 135.263 211.13 135.262ZM407.212 135.262C364.52 135.262 329.91 169.703 329.91 212.188C329.911 254.673 364.52 289.114 407.212 289.114C449.904 289.113 484.514 254.672 484.514 212.188C484.514 169.703 449.904 135.263 407.212 135.262Z" fill="#FDFDFD"/>
</svg>
